<?xml version="1.0" encoding="UTF-8" standalone="no"?>
<!-- Generator: Adobe Illustrator 16.0.4, SVG Export Plug-In . SVG Version: 6.00 Build 0)  -->

<svg
   xmlns:dc="http://purl.org/dc/elements/1.1/"
   xmlns:cc="http://creativecommons.org/ns#"
   xmlns:rdf="http://www.w3.org/1999/02/22-rdf-syntax-ns#"
   xmlns:svg="http://www.w3.org/2000/svg"
   xmlns="http://www.w3.org/2000/svg"
   xmlns:sodipodi="http://sodipodi.sourceforge.net/DTD/sodipodi-0.dtd"
   xmlns:inkscape="http://www.inkscape.org/namespaces/inkscape"
   version="1.1"
   id="Layer_1"
   x="0px"
   y="0px"
   width="25px"
   height="25px"
   viewBox="0 0 25 25"
   enable-background="new 0 0 25 25"
   xml:space="preserve"
   inkscape:version="0.48.3.1 r9886"
   sodipodi:docname="weather-hot.svg"><metadata
   id="metadata15"><rdf:RDF><cc:Work
       rdf:about=""><dc:format>image/svg+xml</dc:format><dc:type
         rdf:resource="http://purl.org/dc/dcmitype/StillImage" /><dc:title></dc:title></cc:Work></rdf:RDF></metadata><defs
   id="defs13" /><sodipodi:namedview
   pagecolor="#ffffff"
   bordercolor="#666666"
   borderopacity="1"
   objecttolerance="10"
   gridtolerance="10"
   guidetolerance="10"
   inkscape:pageopacity="0"
   inkscape:pageshadow="2"
   inkscape:window-width="2560"
   inkscape:window-height="1551"
   id="namedview11"
   showgrid="false"
   showguides="true"
   inkscape:guide-bbox="true"
   inkscape:zoom="22.627417"
   inkscape:cx="13.329796"
   inkscape:cy="6.898961"
   inkscape:window-x="0"
   inkscape:window-y="25"
   inkscape:window-maximized="1"
   inkscape:current-layer="layer5"><sodipodi:guide
     orientation="0,1"
     position="0,25"
     id="guide3779" /><sodipodi:guide
     orientation="1,0"
     position="0,0"
     id="guide3839" /><sodipodi:guide
     orientation="0,1"
     position="0,0"
     id="guide3841" /><sodipodi:guide
     orientation="1,0"
     position="25,0"
     id="guide3845" /><sodipodi:guide
     orientation="0,1"
     position="12.5,12.5"
     id="guide3929" /><sodipodi:guide
     orientation="1,0"
     position="12.5,12.5"
     id="guide3931" /><sodipodi:guide
     orientation="1,0"
     position="6.25,12.5"
     id="guide3933" /><sodipodi:guide
     orientation="1,0"
     position="18.75,12.5"
     id="guide3935" /></sodipodi:namedview>

<g
   inkscape:groupmode="layer"
   id="layer5"
   inkscape:label="hot"
   style="display:inline"><g
     id="g4039"><path
       style="fill:#ff0000;fill-opacity:1;stroke:none"
       d="m 10,4.9765625 0,0.03125 0,7.6523435 c -2.1714852,0.960661 -3.6875,3.129001 -3.6875,5.65625 0,3.417262 2.7702381,6.1875 6.1875,6.1875 3.417262,0 6.1875,-2.770238 6.1875,-6.1875 0,-2.527249 -1.516015,-4.695589 -3.6875,-5.65625 l 0,-7.6523435 0,-0.03125 z"
       id="path4033"
       inkscape:connector-curvature="0"
       sodipodi:nodetypes="cccssscccc" /></g></g><g
   style="display:inline"
   inkscape:label="thermostat"
   id="g4067"
   inkscape:groupmode="layer"
   sodipodi:insensitive="true"><g
     id="g4069"><path
       sodipodi:nodetypes="ssscssscsss"
       inkscape:connector-curvature="0"
       id="path4071"
       d="m 12.5,0.5078125 c -1.370091,0 -2.482963,1.1027003 -2.5,2.46875 -1.321e-4,0.01059 0,0.020629 0,0.03125 l 0,9.6523435 c -2.1714852,0.960661 -3.6875,3.129001 -3.6875,5.65625 0,3.417262 2.7702381,6.1875 6.1875,6.1875 3.417262,0 6.1875,-2.770238 6.1875,-6.1875 0,-2.527249 -1.516015,-4.695589 -3.6875,-5.65625 l 0,-9.6523435 c 0,-0.010621 1.32e-4,-0.02066 0,-0.03125 -0.01704,-1.3660497 -1.129909,-2.46875 -2.5,-2.46875 z"
       style="fill:none;stroke:#ffffff;stroke-opacity:1" /></g></g></svg>