<?xml version="1.0" encoding="utf-8"?>
<!-- Generator: Adobe Illustrator 16.0.0, SVG Export Plug-In . SVG Version: 6.00 Build 0)  -->
<!DOCTYPE svg PUBLIC "-//W3C//DTD SVG 1.1//EN" "http://www.w3.org/Graphics/SVG/1.1/DTD/svg11.dtd">
<svg version="1.1" id="Layer_1" xmlns="http://www.w3.org/2000/svg" xmlns:xlink="http://www.w3.org/1999/xlink" x="0px" y="0px"
	 width="64px" height="64px" viewBox="0 0 64 64" enable-background="new 0 0 64 64" xml:space="preserve">
<path fill="#FFFFFF" d="M33.371,55.229c-12.981,0-23.542-10.438-23.542-23.269c0-11.423,8.265-21.074,19.653-22.945
	c0.452-0.073,0.907,0.11,1.176,0.477c0.268,0.367,0.304,0.851,0.091,1.254c-1.598,3.013-2.409,6.271-2.409,9.68
	c0,11.513,9.477,20.88,21.128,20.88c1.149,0,2.324-0.096,3.492-0.287c0.455-0.077,0.907,0.111,1.177,0.478
	c0.268,0.367,0.305,0.851,0.09,1.252C50.145,50.449,42.15,55.229,33.371,55.229z M27.573,11.879
	c-9.01,2.512-15.33,10.618-15.33,20.082c0,11.515,9.478,20.882,21.127,20.882c7.085,0,13.598-3.47,17.504-9.19
	c-0.472,0.027-0.938,0.043-1.406,0.043c-12.981,0-23.542-10.439-23.542-23.269C25.926,17.503,26.491,14.59,27.573,11.879z"/>
</svg>
