<?xml version="1.0" encoding="utf-8"?>
<!-- Generator: Adobe Illustrator 16.0.0, SVG Export Plug-In . SVG Version: 6.00 Build 0)  -->
<!DOCTYPE svg PUBLIC "-//W3C//DTD SVG 1.1//EN" "http://www.w3.org/Graphics/SVG/1.1/DTD/svg11.dtd">
<svg version="1.1" id="Layer_1" xmlns="http://www.w3.org/2000/svg" xmlns:xlink="http://www.w3.org/1999/xlink" x="0px" y="0px"
	 width="64px" height="64px" viewBox="0 0 64 64" enable-background="new 0 0 64 64" xml:space="preserve">
<g>
	<path fill="#9ECEF8" d="M39.064,35.062l-6.583,6.125c-0.83,0.715-1.364,1.752-1.364,2.918c0,2.151,1.778,3.896,3.971,3.896
		c2.195,0,3.976-1.745,3.976-3.896C39.064,44.09,39.064,35.062,39.064,35.062z"/>
</g>
<g>
	<path fill="#9ECEF8" d="M26.164,43.275l-6.582,6.127c-0.831,0.716-1.364,1.752-1.364,2.916c0,2.156,1.779,3.897,3.975,3.897
		c2.193,0,3.971-1.741,3.971-3.897C26.164,52.305,26.164,43.275,26.164,43.275z"/>
</g>
<path fill="#FFFFFF" d="M56.003,33.217c-0.179-3.224-1.325-5.905-3.41-7.967c-2.448-2.425-5.454-3.167-6.45-3.354
	c-0.026-3.087-1.236-6.019-3.504-8.488c-3.109-3.382-7.834-5.402-12.632-5.402c-4.451,0-8.989,2.102-12.136,5.624
	c-2.435,2.723-3.768,5.965-3.759,9.142C8.334,23.575,3.988,28.164,3.988,33.48c0,5.914,3.721,10.983,6.768,10.984h0.001l6.391-0.003
	l3.135-2.698l-9.525,0.004c-1.166,0-4.02-3.59-4.02-8.287c0-4.256,4.046-7.979,8.832-8.127h1.567l-0.204-1.525
	c-0.374-2.796,0.721-5.865,3.005-8.419c2.634-2.946,6.398-4.704,10.069-4.704c4.034,0,7.993,1.687,10.589,4.513
	c2.062,2.242,3.037,4.994,2.745,7.752l-0.081,1.482h1.518c0.812,0,3.636,0.496,5.861,2.698c1.777,1.758,2.666,4.146,2.639,7.097
	l-0.012,1.358l1.207-0.002l0.209,0.045c1.453,0.302,2.51,1.572,2.51,3.02c0,1.283-0.471,2.459-0.773,3.081l-10.179,0.006l-3.24,2.7
	l14.979-0.008l0.406-0.61c0.064-0.096,1.557-2.364,1.557-5.169C59.941,36.223,58.361,34.04,56.003,33.217z"/>
</svg>
