<?xml version="1.0" encoding="utf-8"?>
<!-- Generator: Adobe Illustrator 16.0.4, SVG Export Plug-In . SVG Version: 6.00 Build 0)  -->
<!DOCTYPE svg PUBLIC "-//W3C//DTD SVG 1.1//EN" "http://www.w3.org/Graphics/SVG/1.1/DTD/svg11.dtd">
<svg version="1.1" id="Layer_1" xmlns="http://www.w3.org/2000/svg" xmlns:xlink="http://www.w3.org/1999/xlink" x="0px" y="0px"
	 width="27px" height="27px" viewBox="0 0 27 27" enable-background="new 0 0 27 27" xml:space="preserve">
<path fill="#A1CEEF" d="M5,19c2.483,0,4.377-0.614,4.998-1.9c0.622,1.286,0.545,1.927,3.106,1.927c2.482,0,3.104-1.284,3.104-1.927
	c0,0,0.826,2.543,5.792,1.9c0,0.643,0,0,0,0c-1.553,4.687-4,7-9,7c-6,0-7.348-5.045-7.348-5.687C5.652,19.669,5,19,5,19z"/>
<g>
	<path fill="#FFFFFF" d="M21.779,13.593L14.027,0.282C13.929,0.125,13.698,0,13.5,0c-0.231,0-0.429,0.125-0.528,0.282L5.219,13.593
		C4.428,14.875,4,16.406,4,18.001C4,22.969,8.254,27,13.5,27c5.242,0,9.5-4.031,9.5-8.999C23,16.406,22.536,14.875,21.779,13.593z
		 M13.5,25C9.358,25,6,21.817,6,17.896c0-1.259,0.338-2.468,0.962-3.479l6.121-10.509c0.078-0.124,0.235-0.223,0.417-0.223
		c0.156,0,0.339,0.099,0.416,0.223l6.12,10.509C20.634,15.428,21,16.637,21,17.896C21,21.817,17.639,25,13.5,25z"/>
</g>
</svg>
