<?xml version="1.0" encoding="utf-8"?>
<!-- Generator: Adobe Illustrator 16.0.0, SVG Export Plug-In . SVG Version: 6.00 Build 0)  -->
<!DOCTYPE svg PUBLIC "-//W3C//DTD SVG 1.1//EN" "http://www.w3.org/Graphics/SVG/1.1/DTD/svg11.dtd">
<svg version="1.1" id="Layer_1" xmlns="http://www.w3.org/2000/svg" xmlns:xlink="http://www.w3.org/1999/xlink" x="0px" y="0px"
	 width="64px" height="64px" viewBox="0 0 64 64" enable-background="new 0 0 64 64" xml:space="preserve">
<path fill="#FFFFFF" d="M25.862,52.605l-2.592-1.463l2.592-1.468c0.562-0.315,0.756-1.018,0.432-1.567
	c-0.327-0.545-1.045-0.734-1.603-0.418L22.1,49.154v-2.932c0-0.634-0.525-1.146-1.175-1.146c-0.648,0-1.171,0.514-1.171,1.146v2.932
	l-2.593-1.463c-0.563-0.316-1.277-0.129-1.601,0.42c-0.327,0.547-0.13,1.252,0.428,1.565l2.592,1.466l-2.592,1.463
	c-0.559,0.315-0.755,1.02-0.428,1.567c0.217,0.369,0.609,0.574,1.017,0.574c0.198,0,0.401-0.052,0.584-0.154l2.593-1.465v2.929
	c0,0.633,0.523,1.147,1.171,1.147c0.649,0,1.175-0.517,1.175-1.147v-2.929l2.591,1.465c0.187,0.104,0.387,0.154,0.583,0.154
	c0.41,0,0.802-0.205,1.02-0.574C26.618,53.625,26.424,52.922,25.862,52.605"/>
<polygon fill="#9ECEF8" points="28.917,31.648 25.339,45.277 36.072,31.648 "/>
<polygon fill="#9ECEF8" points="35.668,40.371 32.091,54 42.825,40.371 "/>
<path fill="#FFFFFF" d="M55.986,31.928c-0.178-3.214-1.324-5.886-3.409-7.943c-2.448-2.416-5.453-3.157-6.449-3.344
	c-0.026-3.078-1.237-6.002-3.504-8.462c-3.11-3.373-7.832-5.387-12.631-5.387c-4.451,0-8.989,2.095-12.135,5.605
	c-2.435,2.717-3.768,5.951-3.759,9.117C8.322,22.315,3.977,26.891,3.977,32.192c0,5.896,3.721,10.951,6.768,10.953h0.001
	l3.005-0.004l3.135-2.692l-6.141,0.006c-1.167-0.002-4.02-3.58-4.02-8.264c0-4.245,4.045-7.956,8.831-8.104h1.567l-0.203-1.521
	c-0.375-2.788,0.721-5.848,3.004-8.395c2.632-2.937,6.397-4.69,10.067-4.69c4.032,0,7.991,1.683,10.588,4.499
	c2.062,2.238,3.037,4.982,2.746,7.731l-0.082,1.479h1.521c0.812,0,3.633,0.494,5.858,2.69c1.776,1.752,2.664,4.133,2.64,7.078
	l-0.013,1.355l1.207-0.002l0.208,0.043c1.454,0.301,2.51,1.566,2.51,3.012c0,1.281-0.472,2.451-0.773,3.072l-5.945,0.006
	l-3.241,2.69l10.748-0.008l0.407-0.608c0.064-0.096,1.556-2.355,1.556-5.152C59.925,34.926,58.346,32.75,55.986,31.928z"/>
</svg>
