<?xml version="1.0" encoding="utf-8"?>
<!-- Generator: Adobe Illustrator 16.0.0, SVG Export Plug-In . SVG Version: 6.00 Build 0)  -->
<!DOCTYPE svg PUBLIC "-//W3C//DTD SVG 1.1//EN" "http://www.w3.org/Graphics/SVG/1.1/DTD/svg11.dtd">
<svg version="1.1" id="Layer_1" xmlns="http://www.w3.org/2000/svg" xmlns:xlink="http://www.w3.org/1999/xlink" x="0px" y="0px"
	 width="64px" height="64px" viewBox="0 0 64 64" enable-background="new 0 0 64 64" xml:space="preserve">
<path fill="#FFFFFF" d="M43.096,44.895l-2.592-1.476l2.592-1.474c0.562-0.316,0.754-1.021,0.432-1.576
	c-0.327-0.551-1.043-0.739-1.604-0.421l-2.593,1.474v-2.947c0-0.638-0.524-1.152-1.173-1.152c-0.646,0-1.172,0.516-1.172,1.152
	v2.947l-2.596-1.473c-0.562-0.316-1.274-0.126-1.601,0.421c-0.325,0.554-0.13,1.261,0.428,1.578l2.595,1.474l-2.595,1.473
	c-0.558,0.316-0.753,1.022-0.428,1.574c0.217,0.37,0.612,0.576,1.017,0.576c0.197,0,0.402-0.05,0.584-0.154l2.596-1.475v2.945
	c0,0.638,0.525,1.154,1.172,1.154c0.648,0,1.173-0.518,1.173-1.154v-2.943l2.593,1.473c0.188,0.104,0.387,0.154,0.583,0.154
	c0.409,0,0.802-0.206,1.021-0.576C43.85,45.917,43.657,45.211,43.096,44.895"/>
<g>
	<path fill="#9ECEF8" d="M29.778,30.12l-6.581,6.144c-0.831,0.715-1.364,1.754-1.364,2.922c0,2.158,1.778,3.907,3.974,3.907
		c2.193,0,3.971-1.749,3.971-3.907C29.778,39.17,29.778,30.12,29.778,30.12z"/>
</g>
<g>
	<path fill="#9ECEF8" d="M29.778,44.502l-6.581,6.145c-0.831,0.717-1.364,1.754-1.364,2.924c0,2.16,1.778,3.908,3.974,3.908
		c2.193,0,3.971-1.748,3.971-3.908C29.778,53.555,29.778,44.502,29.778,44.502z"/>
</g>
<path fill="#FFFFFF" d="M56.07,31.892c-0.178-3.232-1.326-5.919-3.41-7.987c-2.448-2.43-5.453-3.174-6.448-3.361
	c-0.026-3.096-1.237-6.036-3.506-8.509c-3.108-3.392-7.829-5.417-12.629-5.417c-4.453,0-8.989,2.107-12.136,5.636
	c-2.436,2.732-3.769,5.984-3.76,9.167C8.404,22.227,4.058,26.827,4.058,32.157c0,5.929,3.722,11.013,6.768,11.014h0.002l3.006-0.003
	l3.135-2.707l-6.141,0.004c-1.166-0.001-4.02-3.599-4.02-8.308c0-4.268,4.046-8,8.832-8.148h1.566l-0.204-1.529
	c-0.375-2.805,0.72-5.881,3.004-8.441c2.633-2.953,6.397-4.715,10.069-4.715c4.032,0,7.991,1.691,10.588,4.522
	c2.062,2.25,3.037,5.009,2.745,7.774l-0.082,1.486h1.52c0.812,0,3.633,0.496,5.86,2.705c1.776,1.762,2.663,4.156,2.64,7.119
	l-0.014,1.36l1.208-0.003l0.207,0.045c1.455,0.302,2.511,1.575,2.511,3.027c0,1.289-0.472,2.468-0.775,3.089l-5.943,0.006
	l-3.242,2.706l10.748-0.01l0.407-0.61c0.065-0.097,1.557-2.37,1.557-5.183C60.009,34.906,58.428,32.718,56.07,31.892z"/>
</svg>
