<?xml version="1.0" encoding="utf-8"?>
<!-- Generator: Adobe Illustrator 16.0.0, SVG Export Plug-In . SVG Version: 6.00 Build 0)  -->
<!DOCTYPE svg PUBLIC "-//W3C//DTD SVG 1.1//EN" "http://www.w3.org/Graphics/SVG/1.1/DTD/svg11.dtd">
<svg version="1.1" id="Layer_1" xmlns="http://www.w3.org/2000/svg" xmlns:xlink="http://www.w3.org/1999/xlink" x="0px" y="0px"
	 width="64px" height="64px" viewBox="0 0 64 64" enable-background="new 0 0 64 64" xml:space="preserve">
<polygon fill="#FFFFFF" stroke="#FFFFFF" points="221.834,924.797 162.998,924.826 165.201,922.553 224.109,922.523 "/>
<polygon fill="#FFFFFF" stroke="#FFFFFF" points="221.834,932.043 151.633,932.07 153.836,929.799 224.109,929.77 "/>
<polygon fill="#FFFFFF" stroke="#FFFFFF" points="223.35,938.99 141.782,939.02 143.984,936.746 225.625,936.717 "/>
<polygon fill="#FFFFFF" stroke="#FFFFFF" points="208.953,946.947 153.527,946.975 155.729,944.701 211.229,944.674 "/>
<polygon fill="#FFFFFF" stroke="#FFFFFF" points="210.469,917.172 174.363,917.203 176.564,914.93 212.744,914.898 "/>
<g>
	<polygon fill="#BFBEBE" points="58.883,26.39 19.85,26.41 17.798,28.513 56.764,28.493 	"/>
	<polygon fill="#BFBEBE" points="58.883,31.043 12.497,31.063 10.445,33.164 56.764,33.146 	"/>
	<polygon fill="#BFBEBE" points="6.124,35.523 4.072,37.626 57.745,37.605 59.863,35.503 	"/>
	<polygon fill="#BFBEBE" points="11.67,42.732 48.43,42.714 50.549,40.611 13.722,40.631 	"/>
	<polygon fill="#BFBEBE" points="51.531,21.496 27.204,21.516 25.151,23.619 49.41,23.598 	"/>
</g>
</svg>
