<?xml version="1.0" encoding="utf-8"?>
<!-- Generator: Adobe Illustrator 16.0.0, SVG Export Plug-In . SVG Version: 6.00 Build 0)  -->
<!DOCTYPE svg PUBLIC "-//W3C//DTD SVG 1.1//EN" "http://www.w3.org/Graphics/SVG/1.1/DTD/svg11.dtd">
<svg version="1.1" id="Layer_1" xmlns="http://www.w3.org/2000/svg" xmlns:xlink="http://www.w3.org/1999/xlink" x="0px" y="0px"
	 width="64px" height="64px" viewBox="0 0 64 64" enable-background="new 0 0 64 64" xml:space="preserve">
<g>
	<path fill="#9ECEF8" d="M17.859,44.227l-6.573,6.084c-0.83,0.709-1.363,1.736-1.363,2.896c0,2.138,1.778,3.871,3.968,3.871
		c2.192,0,3.969-1.733,3.969-3.871C17.859,53.189,17.859,44.227,17.859,44.227z"/>
</g>
<path fill="#FFFFFF" d="M37.712,41.139c-0.039-0.068-0.114-0.113-0.198-0.113h-0.002l-5.492,0.013l5.132-9.978
	c0.037-0.067,0.033-0.149-0.008-0.212c-0.041-0.066-0.115-0.105-0.19-0.105H27.42c-0.092,0-0.176,0.057-0.209,0.142l-5.826,15.176
	c-0.026,0.066-0.017,0.143,0.025,0.201c0.042,0.061,0.11,0.094,0.184,0.094h6.599l-3.108,12.192
	c-0.026,0.103,0.026,0.21,0.125,0.252c0.03,0.015,0.062,0.019,0.092,0.019c0.072,0,0.142-0.031,0.185-0.094l12.211-17.358
	C37.747,41.299,37.751,41.213,37.712,41.139z"/>
<path fill="#FFFFFF" d="M56.137,30.302c-0.182-3.2-1.33-5.861-3.414-7.91c-2.435-2.397-5.423-3.141-6.435-3.332
	c-0.031-3.064-1.24-5.974-3.504-8.424c-3.111-3.363-7.833-5.371-12.631-5.371c-4.452,0-8.989,2.089-12.137,5.59
	c-2.431,2.701-3.763,5.92-3.759,9.072C8.484,20.734,4.146,25.294,4.146,30.578c0,5.884,3.728,10.926,6.78,10.928h0.002l5.501-0.003
	l2.25-2.724l-7.749,0.007c-1.158-0.002-3.993-3.556-3.993-8.208c0-4.216,4.031-7.903,8.799-8.049h1.589l-0.207-1.538
	c-0.373-2.771,0.718-5.811,2.995-8.343c2.626-2.921,6.38-4.664,10.041-4.664c4.023,0,7.97,1.672,10.558,4.474
	c2.058,2.222,3.028,4.949,2.738,7.683l-0.082,1.494h1.538c0.81,0,3.621,0.491,5.838,2.672c1.771,1.741,2.654,4.107,2.629,7.032
	l-0.012,1.373l1.224-0.004l0.206,0.044c1.441,0.295,2.488,1.549,2.488,2.979c0,1.261-0.463,2.418-0.764,3.037l-11.015,0.006
	l-3.285,2.724L58.1,41.489l0.412-0.616c0.065-0.094,1.559-2.35,1.559-5.143C60.07,33.298,58.492,31.127,56.137,30.302z"/>
</svg>
