<?xml version="1.0" encoding="utf-8"?>
<!-- Generator: Adobe Illustrator 16.0.0, SVG Export Plug-In . SVG Version: 6.00 Build 0)  -->
<!DOCTYPE svg PUBLIC "-//W3C//DTD SVG 1.1//EN" "http://www.w3.org/Graphics/SVG/1.1/DTD/svg11.dtd">
<svg version="1.1" id="Layer_1" xmlns="http://www.w3.org/2000/svg" xmlns:xlink="http://www.w3.org/1999/xlink" x="0px" y="0px"
	 width="64px" height="64px" viewBox="0 0 64 64" enable-background="new 0 0 64 64" xml:space="preserve">
<g>
	<path fill="#9ECEF8" d="M22.793,42.861l-7.296,5.281c-0.913,0.604-1.571,1.567-1.717,2.724c-0.269,2.133,1.282,4.069,3.461,4.331
		c2.177,0.261,4.159-1.254,4.428-3.385C21.671,51.797,22.793,42.861,22.793,42.861z"/>
</g>
<polygon fill="#9ECEF8" points="29.574,36.242 25.994,49.872 36.73,36.242 "/>
<polygon fill="#9ECEF8" points="35.482,43.447 31.902,57.078 42.639,43.447 "/>
<path fill="#FFFFFF" d="M55.945,32.109c-0.18-3.213-1.325-5.886-3.412-7.944c-2.453-2.418-5.456-3.159-6.449-3.345
	c-0.027-3.078-1.238-6.004-3.505-8.462c-3.113-3.373-7.835-5.387-12.636-5.387c-4.452,0-8.989,2.095-12.137,5.605
	c-2.438,2.717-3.77,5.952-3.761,9.116C8.267,22.495,3.92,27.072,3.92,32.372c0,5.896,3.722,10.95,6.769,10.953h0.002l3.003-0.002
	l3.136-2.691l-6.143,0.005c-1.166-0.002-4.02-3.58-4.02-8.264c0-4.245,4.047-7.957,8.833-8.105h1.569l-0.205-1.521
	c-0.374-2.787,0.72-5.847,3.005-8.396c2.632-2.936,6.398-4.688,10.07-4.688c4.034,0,7.995,1.681,10.592,4.498
	c2.06,2.238,3.037,4.982,2.746,7.732l-0.082,1.477h1.52c0.812,0,3.637,0.494,5.862,2.69c1.778,1.753,2.665,4.134,2.64,7.077
	l-0.016,1.356l1.21-0.002l0.207,0.043c1.456,0.301,2.513,1.569,2.513,3.012c0,1.278-0.472,2.453-0.775,3.073l-5.945,0.005
	l-3.239,2.69l10.75-0.006l0.405-0.609c0.066-0.094,1.558-2.355,1.558-5.153C59.884,35.107,58.302,32.932,55.945,32.109z"/>
</svg>
