<?xml version="1.0" encoding="utf-8"?>
<!-- Generator: Adobe Illustrator 16.0.0, SVG Export Plug-In . SVG Version: 6.00 Build 0)  -->
<!DOCTYPE svg PUBLIC "-//W3C//DTD SVG 1.1//EN" "http://www.w3.org/Graphics/SVG/1.1/DTD/svg11.dtd">
<svg version="1.1" id="Layer_1" xmlns="http://www.w3.org/2000/svg" xmlns:xlink="http://www.w3.org/1999/xlink" x="0px" y="0px"
	 width="64px" height="64px" viewBox="0 0 64 64" enable-background="new 0 0 64 64" xml:space="preserve">
<g>
	<path fill="#FFFFFF" d="M36.891,48.734l-2.586-1.452l2.586-1.452c0.562-0.314,0.756-1.012,0.43-1.557
		c-0.325-0.545-1.041-0.732-1.6-0.418l-2.588,1.455V42.4c0-0.627-0.523-1.139-1.173-1.139c-0.645,0-1.167,0.512-1.167,1.139v2.91
		l-2.591-1.453c-0.563-0.313-1.276-0.125-1.599,0.416c-0.327,0.545-0.13,1.242,0.428,1.558l2.588,1.453l-2.588,1.45
		c-0.558,0.314-0.754,1.012-0.428,1.557c0.216,0.363,0.611,0.568,1.015,0.568c0.197,0,0.401-0.049,0.584-0.152l2.591-1.452v2.904
		c0,0.628,0.522,1.139,1.167,1.139c0.649,0,1.173-0.511,1.173-1.139v-2.904l2.588,1.452c0.188,0.104,0.387,0.152,0.582,0.152
		c0.408,0,0.801-0.205,1.018-0.568C37.646,49.746,37.452,49.05,36.891,48.734"/>
	<path fill="#FFFFFF" d="M55.961,35.71c-0.177-3.192-1.324-5.843-3.406-7.883c-2.445-2.398-5.445-3.132-6.438-3.317
		c-0.025-3.057-1.234-5.957-3.498-8.396c-3.104-3.347-7.818-5.345-12.61-5.345c-4.445,0-8.973,2.079-12.116,5.561
		c-2.433,2.696-3.762,5.906-3.753,9.046C8.37,26.17,4.032,30.709,4.032,35.968c0,5.853,3.715,10.865,6.758,10.867l8.068-0.003
		l3.13-2.669l-11.2,0.005c-1.163-0.002-4.012-3.552-4.012-8.199c0-4.211,4.038-7.893,8.817-8.041h1.564l-0.205-1.508
		c-0.374-2.766,0.721-5.801,3.001-8.331c2.628-2.912,6.385-4.651,10.052-4.651c4.028,0,7.979,1.668,10.571,4.462
		c2.061,2.221,3.033,4.942,2.742,7.671l-0.082,1.466h1.518c0.811,0,3.629,0.49,5.852,2.669c1.774,1.74,2.658,4.101,2.633,7.021
		l-0.012,1.347l1.205-0.001l0.207,0.042c1.453,0.299,2.508,1.555,2.508,2.987c0,1.272-0.473,2.436-0.771,3.049l-11.007,0.007
		l-3.235,2.669l15.799-0.008l0.406-0.604c0.066-0.092,1.555-2.337,1.555-5.11C59.893,38.686,58.314,36.523,55.961,35.71z
		 M10.786,46.734L10.786,46.734L10.786,46.734L10.786,46.734z"/>
</g>
</svg>
