<?xml version="1.0" encoding="utf-8"?>
<!-- Generator: Adobe Illustrator 16.0.0, SVG Export Plug-In . SVG Version: 6.00 Build 0)  -->
<!DOCTYPE svg PUBLIC "-//W3C//DTD SVG 1.1//EN" "http://www.w3.org/Graphics/SVG/1.1/DTD/svg11.dtd">
<svg version="1.1" id="Layer_1" xmlns="http://www.w3.org/2000/svg" xmlns:xlink="http://www.w3.org/1999/xlink" x="0px" y="0px"
	 width="64px" height="64px" viewBox="0 0 64 64" enable-background="new 0 0 64 64" xml:space="preserve">
<path fill="#FFFFFF" d="M25.994,52.8l-2.592-1.471l2.592-1.476c0.562-0.312,0.754-1.021,0.429-1.569
	c-0.325-0.55-1.042-0.74-1.602-0.419l-2.589,1.471v-2.943c0-0.641-0.525-1.15-1.172-1.15s-1.172,0.513-1.172,1.15v2.943l-2.59-1.471
	c-0.562-0.319-1.277-0.131-1.6,0.421c-0.327,0.55-0.13,1.257,0.428,1.571l2.59,1.472l-2.59,1.471
	c-0.558,0.315-0.755,1.022-0.428,1.573c0.215,0.37,0.609,0.575,1.016,0.575c0.199,0,0.401-0.052,0.584-0.154l2.59-1.471v2.94
	c0,0.635,0.523,1.149,1.172,1.149s1.172-0.517,1.172-1.149v-2.938l2.589,1.469c0.187,0.104,0.387,0.154,0.583,0.154
	c0.41,0,0.801-0.205,1.018-0.575C26.748,53.822,26.554,53.115,25.994,52.8"/>
<path fill="#FFFFFF" d="M36.923,42.579l-2.589-1.472l2.589-1.473c0.562-0.316,0.755-1.021,0.431-1.572
	c-0.326-0.551-1.041-0.737-1.602-0.42l-2.589,1.471v-2.945c0-0.633-0.524-1.148-1.174-1.148c-0.645,0-1.169,0.517-1.169,1.148v2.945
	l-2.593-1.469c-0.563-0.317-1.276-0.129-1.6,0.42c-0.327,0.551-0.129,1.258,0.428,1.574l2.591,1.469l-2.591,1.472
	c-0.558,0.315-0.754,1.024-0.428,1.575c0.217,0.367,0.612,0.572,1.016,0.572c0.198,0,0.401-0.051,0.584-0.153l2.593-1.472v2.939
	c0,0.637,0.523,1.152,1.169,1.152c0.648,0,1.174-0.517,1.174-1.152v-2.938l2.589,1.469c0.188,0.104,0.387,0.154,0.582,0.154
	c0.41,0,0.805-0.205,1.02-0.574C37.678,43.604,37.484,42.896,36.923,42.579"/>
<path fill="#FFFFFF" d="M47.796,52.8l-2.593-1.471l2.593-1.476c0.562-0.312,0.753-1.021,0.429-1.569
	c-0.324-0.55-1.043-0.74-1.601-0.419l-2.591,1.471v-2.943c0-0.641-0.524-1.15-1.174-1.15c-0.646,0-1.168,0.513-1.168,1.15v2.943
	l-2.594-1.471c-0.562-0.319-1.275-0.131-1.601,0.421c-0.325,0.55-0.131,1.257,0.428,1.571l2.593,1.472L37.927,52.8
	c-0.56,0.315-0.755,1.022-0.428,1.573c0.215,0.37,0.608,0.575,1.015,0.575c0.197,0,0.401-0.052,0.584-0.154l2.594-1.471v2.94
	c0,0.635,0.522,1.149,1.17,1.149c0.646,0,1.174-0.517,1.174-1.149v-2.938l2.589,1.469c0.187,0.104,0.39,0.154,0.585,0.154
	c0.407,0,0.801-0.205,1.018-0.575C48.549,53.822,48.355,53.115,47.796,52.8"/>
<path fill="#FFFFFF" d="M56.006,31.695c-0.178-3.228-1.324-5.912-3.406-7.976c-2.449-2.427-5.451-3.17-6.445-3.357
	c-0.026-3.09-1.235-6.027-3.5-8.495c-3.108-3.387-7.827-5.409-12.621-5.409c-4.448,0-8.981,2.104-12.125,5.628
	c-2.434,2.726-3.765,5.974-3.756,9.152C8.379,22.042,4.038,26.635,4.038,31.959c0,5.92,3.719,10.992,6.762,10.996h0.002l3.002-0.004
	l3.132-2.7L10.8,40.255c-1.164-0.001-4.016-3.593-4.016-8.293c0-4.264,4.042-7.989,8.824-8.138h1.566l-0.205-1.528
	c-0.374-2.797,0.719-5.869,3.001-8.427c2.631-2.948,6.391-4.708,10.06-4.708c4.029,0,7.986,1.687,10.582,4.515
	c2.059,2.247,3.033,5.002,2.742,7.762l-0.082,1.483h1.518c0.812,0,3.632,0.497,5.855,2.701c1.774,1.758,2.662,4.15,2.635,7.104
	l-0.012,1.361l1.209-0.002l0.207,0.043c1.453,0.301,2.51,1.574,2.51,3.023c0,1.283-0.473,2.464-0.775,3.084l-5.941,0.003
	l-3.236,2.706l10.738-0.008l0.405-0.61c0.067-0.097,1.558-2.366,1.558-5.175C59.941,34.703,58.361,32.52,56.006,31.695z"/>
</svg>
