<?xml version="1.0" encoding="utf-8"?>
<!-- Generator: Adobe Illustrator 16.0.0, SVG Export Plug-In . SVG Version: 6.00 Build 0)  -->
<!DOCTYPE svg PUBLIC "-//W3C//DTD SVG 1.1//EN" "http://www.w3.org/Graphics/SVG/1.1/DTD/svg11.dtd">
<svg version="1.1" id="Layer_1" xmlns="http://www.w3.org/2000/svg" xmlns:xlink="http://www.w3.org/1999/xlink" x="0px" y="0px"
	 width="64px" height="64px" viewBox="0 0 64 64" enable-background="new 0 0 64 64" xml:space="preserve">
<g>
	<path fill="#FFFFFF" d="M59.605,32.319c-0.287-0.399-0.779-0.61-1.285-0.528c-0.787,0.132-1.577,0.198-2.35,0.198
		c-7.842,0-14.221-6.38-14.221-14.221c0-2.321,0.546-4.539,1.621-6.591c0.234-0.445,0.195-0.976-0.1-1.384
		c-0.287-0.398-0.77-0.607-1.285-0.528c-7.026,1.17-12.23,6.014-13.579,12.643l-0.054,0.267l0.269,0.044
		c0.729,0.123,1.206,0.278,1.591,0.401c0.163,0.053,0.31,0.101,0.449,0.137l0.271,0.072l0.056-0.273
		c0.962-4.721,4.218-8.357,8.967-10.046c-0.56,1.703-0.843,3.469-0.843,5.258c0,4.494,1.752,8.723,4.933,11.911
		c3.181,3.189,7.407,4.945,11.896,4.945c0.02,0.001,0.031,0,0.047,0c-1.952,2.503-4.82,4.356-7.951,5.126l-0.284,0.07l0.103,0.277
		c0.006,0.014,0.549,1.496,0.662,1.959l0.064,0.256l0.255-0.062c4.664-1.149,8.626-4.267,10.869-8.546
		C59.939,33.259,59.902,32.727,59.605,32.319z"/>
	<path fill="#FFFFFF" d="M47.172,45.189c-0.17-2.725-1.138-4.994-2.876-6.748c-1.968-1.983-4.356-2.662-5.313-2.862
		c-0.058-2.606-1.074-5.079-2.953-7.162c-2.618-2.902-6.592-4.635-10.629-4.635c-3.749,0-7.569,1.802-10.218,4.822
		c-2.015,2.296-3.134,5.026-3.167,7.708c-4.813,0.754-8.414,4.681-8.414,9.224c0,5.103,3.189,9.479,5.8,9.481h0.002l39.338-0.014
		l0.39-0.6c0.055-0.081,1.321-2.045,1.321-4.473C50.452,47.825,49.143,45.941,47.172,45.189z M14.905,38.826l-0.195-1.488
		c-0.304-2.318,0.59-4.868,2.455-6.995c2.155-2.458,5.234-3.924,8.236-3.924c3.303,0,6.544,1.407,8.669,3.763
		c1.679,1.865,2.475,4.147,2.236,6.442l-0.078,1.44h1.448c0.657,0,2.938,0.41,4.745,2.231c1.444,1.456,2.163,3.438,2.143,5.888
		l-0.01,1.33l1.146-0.006l0.169,0.035c1.129,0.239,1.947,1.243,1.947,2.387c0,0.986-0.334,1.902-0.58,2.437L9.404,52.382
		c-0.766-0.002-3.165-2.845-3.165-6.847c0-3.512,3.281-6.584,7.167-6.71v0.001H14.905z"/>
</g>
</svg>
