<?xml version="1.0" encoding="utf-8"?>
<!-- Generator: Adobe Illustrator 16.0.4, SVG Export Plug-In . SVG Version: 6.00 Build 0)  -->
<!DOCTYPE svg PUBLIC "-//W3C//DTD SVG 1.1//EN" "http://www.w3.org/Graphics/SVG/1.1/DTD/svg11.dtd">
<svg version="1.1" id="Layer_1" xmlns="http://www.w3.org/2000/svg" xmlns:xlink="http://www.w3.org/1999/xlink" x="0px" y="0px"
	 width="64px" height="64px" viewBox="0 0 64 64" enable-background="new 0 0 64 64" xml:space="preserve">
<path fill="#FFFFFF" d="M47.172,45.189c-0.17-2.726-1.138-4.994-2.876-6.748c-1.968-1.983-4.356-2.662-5.313-2.862
	c-0.058-2.606-1.073-5.079-2.953-7.162c-2.617-2.902-6.591-4.635-10.628-4.635c-3.749,0-7.569,1.802-10.218,4.822
	c-2.015,2.296-3.134,5.026-3.167,7.708c-4.813,0.754-8.414,4.681-8.414,9.224c0,5.103,3.189,9.479,5.8,9.481h0.002l39.338-0.015
	l0.39-0.601c0.056-0.08,1.321-2.045,1.321-4.473C50.452,47.825,49.143,45.941,47.172,45.189z M14.905,38.826l-0.195-1.488
	c-0.304-2.318,0.59-4.868,2.455-6.995c2.155-2.458,5.234-3.924,8.236-3.924c3.303,0,6.544,1.407,8.669,3.763
	c1.679,1.865,2.475,4.147,2.236,6.442l-0.078,1.44h1.447c0.657,0,2.938,0.41,4.745,2.23c1.444,1.456,2.163,3.438,2.144,5.889
	l-0.01,1.33l1.146-0.007l0.169,0.035c1.129,0.239,1.947,1.243,1.947,2.388c0,0.985-0.334,1.901-0.58,2.437L9.404,52.382
	c-0.766-0.002-3.165-2.845-3.165-6.847c0-3.512,3.281-6.584,7.167-6.71v0.001H14.905z"/>
</svg>
